<?xml version="1.0" encoding="utf-8"?>
<!-- Generator: Adobe Illustrator 24.2.3, SVG Export Plug-In . SVG Version: 6.00 Build 0)  -->
<svg version="1.1" id="d98136f2-2bdf-4149-a70a-ec0867d96ae0"
	 xmlns="http://www.w3.org/2000/svg" xmlns:xlink="http://www.w3.org/1999/xlink" x="0px" y="0px" viewBox="0 0 160 160"
	 style="enable-background:new 0 0 160 160;" xml:space="preserve">
<style type="text/css">
	.st0{fill:#FAFBFD;}
	.st1{fill:#E7ECF2;}
	.st2{opacity:0.7;}
	.st3{fill:#DDE4ED;}
</style>
<ellipse class="st0" cx="80" cy="135.4" rx="54.1" ry="4.9"/>
<g id="_x36_1d4428c-eb73-4b84-bd68-3c09c9755ed1">
	<path class="st1" d="M100,135.4H60c-6.5,0-11.7-5.2-11.7-11.7l4.5-40c0-6.5,5.2-11.7,11.7-11.7h30.9c6.5,0,11.7,5.2,11.7,11.7
		l4.5,40C111.7,130.1,106.5,135.4,100,135.4z M68.3,85.2c-1.7,0-3.3,0.9-4.1,2.4c-0.8,1.5-0.8,3.3,0,4.7c4.9,8.7,16,11.8,24.7,6.9
		c2.9-1.6,5.3-4,6.9-6.9c0.8-1.5,0.8-3.3,0-4.7c-0.9-1.5-2.4-2.4-4.1-2.4c-0.4,0-0.8,0.1-1.1,0.2L88.7,86c-5.6,1.4-11.5,1.4-17.1,0
		l-2-0.5c-0.4,0-0.8,0-1.2,0L68.3,85.2z"/>
</g>
<g class="st2">
	<circle class="st3" cx="114.1" cy="60.8" r="2.1"/>
	<circle class="st3" cx="37.7" cy="60" r="2.1"/>
	<path class="st3" d="M80.9,49.4c-0.5,0-1,0.4-1,0.9v13c0,0.5,0.4,1,1,1s1-0.4,1-1v-13C81.9,49.9,81.5,49.4,80.9,49.4
		C80.9,49.4,80.9,49.4,80.9,49.4z"/>
	<path class="st3" d="M67,53.8c-0.3-0.5-0.9-0.6-1.3-0.3c-0.4,0.3-0.6,0.9-0.3,1.4l4.4,7.4c0.2,0.3,0.5,0.4,0.8,0.4
		c0.2,0,0.3,0,0.5,0c0.4-0.3,0.6-0.9,0.3-1.4L67,53.8z"/>
	<path class="st3" d="M97.1,56.3l-6.2,7c-0.4,0.3-0.4,0.9-0.1,1.3c0,0,0,0,0.1,0.1c0.2,0.2,0.4,0.3,0.6,0.3c0.3,0,0.5-0.1,0.7-0.3
		l6.2-7c0.4-0.3,0.4-0.9,0.1-1.3c0,0,0,0-0.1-0.1c-0.3-0.4-0.9-0.4-1.3-0.1C97.2,56.2,97.1,56.2,97.1,56.3z"/>
	<path class="st3" d="M73.8,19.8c-3.5,0-6.4,2.9-6.4,6.4s2.9,6.4,6.4,6.4s6.4-2.9,6.4-6.4l0,0C80.2,22.6,77.3,19.8,73.8,19.8z
		 M73.8,30.7c-2.5,0-4.5-2-4.5-4.5c0-2.5,2-4.5,4.5-4.5c2.5,0,4.5,2,4.5,4.5c0,0,0,0,0,0C78.3,28.7,76.3,30.7,73.8,30.7
		C73.8,30.7,73.8,30.7,73.8,30.7z"/>
	<path class="st3" d="M93.9,42.8c2.1,0,3.9-1.7,3.9-3.9c0-2.1-1.7-3.9-3.9-3.9c-2.1,0-3.9,1.7-3.9,3.9c0,0,0,0,0,0
		C90.1,41.1,91.8,42.8,93.9,42.8z M93.9,37.1c1.1,0.1,1.8,1.1,1.7,2.2c-0.1,0.9-0.8,1.6-1.7,1.7c-1,0-1.9-0.8-1.9-1.8
		c0,0,0-0.1,0-0.1c0-1.1,0.8-2.1,1.9-2.1c0,0,0,0,0,0V37.1z"/>
	<path class="st3" d="M50.3,43.1h-2.5v-2.5c0-0.5-0.4-1-1-1c-0.5,0-1,0.4-1,1v2.5h-2.5c-0.5,0-1,0.4-1,1l0,0c0,0.5,0.4,0.9,0.9,0.9
		c0,0,0,0,0,0h2.5v2.5c0,0.5,0.4,1,1,1c0.5,0,1-0.4,1-1V45h2.4c0.5,0,1-0.4,1-0.9C51.3,43.5,50.9,43.1,50.3,43.1
		C50.4,43.1,50.4,43.1,50.3,43.1z"/>
	<path class="st3" d="M117,37.1H113V33c0-0.5-0.4-1-1-1c-0.5,0-1,0.4-1,1l0,0v4.1H107c-0.5,0-1,0.4-1,1c0,0.5,0.4,1,1,1h4.1v4.1
		c0,0.5,0.4,1,1,1c0.5,0,1-0.4,1-1V39h4.1c0.5,0,1-0.4,1-1C118,37.5,117.6,37.1,117,37.1C117,37.1,117,37.1,117,37.1z"/>
	<path class="st3" d="M53.4,62h-1.1v-1.1c-0.1-0.5-0.6-0.9-1.1-0.8c-0.4,0.1-0.7,0.4-0.8,0.8V62h-1.1c-0.5,0-1,0.4-1,1
		c0,0.5,0.4,0.9,1,0.9h1.1V65c-0.1,0.5,0.3,1,0.8,1.1c0.5,0.1,1-0.3,1.1-0.8c0-0.1,0-0.2,0-0.3v-1.1h1.1c0.5,0,1-0.4,1-0.9
		C54.4,62.5,54,62,53.4,62z"/>
</g>
</svg>
