<svg xmlns="http://www.w3.org/2000/svg" width="20" height="20" viewBox="0 0 20 20">
  <path id="Subtraction_14" data-name="Subtraction 14" d="M10,20A10,10,0,0,1,2.929,2.929,10,10,0,0,1,17.071,17.071,9.935,9.935,0,0,1,10,20ZM8.618,9.871a.415.415,0,0,1,.242.047c.1.07.291.2-.03.842l-.6,1.2A2.177,2.177,0,0,0,8.083,13.9a1.588,1.588,0,0,0,1.153.85,2.961,2.961,0,0,0,.574.058,3.063,3.063,0,0,0,1.89-.676.3.3,0,0,0-.295-.51,2.3,2.3,0,0,1-.624.112.434.434,0,0,1-.243-.047c-.1-.07-.29-.2.032-.841l.6-1.2a2.186,2.186,0,0,0,.147-1.937,1.591,1.591,0,0,0-1.154-.85A2.864,2.864,0,0,0,9.588,8.8,3.048,3.048,0,0,0,7.7,9.475a.3.3,0,0,0,.3.509l0,0A2.313,2.313,0,0,1,8.618,9.871ZM10.833,5A1.667,1.667,0,1,0,12.5,6.667,1.669,1.669,0,0,0,10.833,5Z" fill="#45434d"/>
</svg>
