<svg xmlns="http://www.w3.org/2000/svg" width="15" height="15" viewBox="0 0 15 15">
  <g id="Group_188" data-name="Group 188" transform="translate(-51.412 -159)">
    <path id="Subtraction_16" data-name="Subtraction 16" d="M7.5,15A7.5,7.5,0,1,1,15,7.5,7.509,7.509,0,0,1,7.5,15ZM5.789,9.227a.473.473,0,0,0-.35.149.478.478,0,0,0-.145.346.6.6,0,0,0,.231.452,2.688,2.688,0,0,0,.738.46,2.948,2.948,0,0,0,.84.2v.478a.515.515,0,0,0,.146.371.482.482,0,0,0,.358.149.511.511,0,0,0,.521-.521v-.53a2.231,2.231,0,0,0,1.135-.605,1.532,1.532,0,0,0,.444-1.109,1.525,1.525,0,0,0-.375-1.114,2.486,2.486,0,0,0-1.2-.576V5.8a2.2,2.2,0,0,1,.725.367.375.375,0,0,0,.231.077.462.462,0,0,0,.341-.15.482.482,0,0,0,.145-.345.57.57,0,0,0-.248-.452,2.462,2.462,0,0,0-1.194-.53V4.449a.511.511,0,0,0-.146-.371.474.474,0,0,0-.358-.15.512.512,0,0,0-.521.521V4.73a2.156,2.156,0,0,0-1.237.559,1.545,1.545,0,0,0-.478,1.164c0,.929.577,1.506,1.715,1.715V9.834a1.676,1.676,0,0,1-.52-.167,3.064,3.064,0,0,1-.5-.337A.45.45,0,0,0,5.789,9.227Zm2.338.529h0V8.416a1.024,1.024,0,0,1,.418.295.652.652,0,0,1,.136.413.521.521,0,0,1-.153.363,1.128,1.128,0,0,1-.4.268ZM7.1,7.145h0a1.257,1.257,0,0,1-.528-.277.613.613,0,0,1-.179-.457.592.592,0,0,1,.179-.435A1,1,0,0,1,7.1,5.729V7.144Z" transform="translate(51.412 159)" fill="#45434d"/>
  </g>
</svg>
